<?xml version="1.0" encoding="UTF-8"?>
<svg width="100px" height="100px" viewBox="0 0 100 100" version="1.1" xmlns="http://www.w3.org/2000/svg" xmlns:xlink="http://www.w3.org/1999/xlink">
    <!-- Generator: Sketch 63 (92445) - https://sketch.com -->
    <title>GitHub - Page</title>
    <desc>Created with Sketch.</desc>
    <g id="GitHub---Page" stroke="none" stroke-width="1" fill="none" fill-rule="evenodd">
        <g id="Group" transform="translate(10.000000, 10.000000)">
            <g id="Icon---Color">
                <g id="servo">
                    <g id="o" transform="translate(0.316840, 0.042007)">
                        <path d="M16.7017651,48.9189873 L36.8920575,63.6007304 L36.8920575,78.4179 C21.2468561,77.5053684 8.0646958,67.4117359 2.64512247,53.4412684 L16.7017651,48.9189873 Z" id="Path" fill="#1192E8"></path>
                        <path d="M61.7159566,48.9189873 L75.7727775,53.4412684 C70.3532248,67.4116829 57.171144,77.5052918 41.5261865,78.4178896 L41.5258425,63.6007304 L61.7159566,48.9189873 Z" id="Path" fill="#1192E8"></path>
                        <path d="M14.3755249,8.8729592 L23.0441693,20.8542542 L15.3761462,44.473866 L1.2281496,49.0256385 C0.477806609,46.0989575 0.0562613624,43.0403504 0.00525287907,39.8915922 L1.14815464e-13,39.2426433 C1.14815464e-13,27.0016423 5.59987531,16.0696862 14.3755249,8.8729592 Z" id="Path" fill="#009D9A"></path>
                        <path d="M64.0423751,8.8729592 C72.8180247,16.0696862 78.4179,27.0016423 78.4179,39.2426433 C78.4179,42.6202989 77.9915412,45.8982875 77.1897504,49.0256385 L63.0415756,44.473866 L55.3735525,20.8542542 L64.0423751,8.8729592 Z" id="Path" fill="#009D9A"></path>
                        <path d="M39.20895,-5.62820901e-15 C46.969487,-5.62820901e-15 54.2034284,2.25656145 60.2914837,6.14986174 L51.5922057,18.1734465 L26.825516,18.1734465 L18.1264163,6.14986174 C24.0445944,2.3651976 31.0456026,0.12720565 38.5605583,0.00525739302 L39.20895,-5.62820901e-15 Z" id="Path" fill="#42BE65"></path>
                    </g>
                </g>
            </g>
        </g>
    </g>
</svg>