<?xml version="1.0" encoding="UTF-8"?>
<svg width="284px" height="63px" viewBox="0 0 284 63" version="1.1" xmlns="http://www.w3.org/2000/svg" xmlns:xlink="http://www.w3.org/1999/xlink">
    <title>servo-color-positive</title>
    <g id="Page-1" stroke="none" stroke-width="1" fill="none" fill-rule="evenodd">
        <g id="servo-color-positive" fill-rule="nonzero">
            <g id="servo">
                <path d="M25.8476906,61.8743391 C39.6864984,61.8743391 49.0648641,54.5546391 49.0648641,43.2319781 C49.0648641,30.8799844 38.3140547,27.448875 28.3638375,24.7039875 C19.3285828,22.0734703 16.2405844,20.9297672 16.2405844,17.1555469 C16.2405844,13.8388078 20.0148047,11.8945125 24.9327281,11.8945125 C30.0793922,11.8945125 36.1410188,13.7244375 41.7451641,17.2699172 L47.57805,7.09095938 C41.1733125,2.85925781 33.0530203,0 24.9327281,0 C11.7801422,0 2.63051719,7.54844062 2.63051719,18.6423609 C2.7448875,29.1644297 10.8651797,32.8242797 23.6746547,36.1410188 C30.4225031,37.9709437 35.5691672,39.4577578 35.5691672,44.0325703 C35.5691672,47.6924203 31.6805766,50.0941969 26.0764313,50.0941969 C18.6423609,50.0941969 12.0088828,47.3493094 6.29036719,43.2319781 L0,52.9534547 C7.09095938,58.6719703 16.8124359,61.8743391 25.8476906,61.8743391 Z" id="s" fill="#000000"></path>
                <path d="M84.0793922,2.72137868e-12 C102.378642,2.72137868e-12 113.015081,13.8388078 113.015081,35.6835375 L113.015081,35.6835375 L68.4106594,35.6835375 C70.1262141,43.8038297 76.3022109,49.5223453 84.7656141,49.5223453 C90.2553891,49.5223453 96.7744969,47.0061984 100.091236,43.5750891 L100.091236,43.5750891 L108.89775,52.7247141 C103.751086,58.2144891 93.4577578,61.8743391 84.8799844,61.8743391 C67.9531781,61.8743391 54,48.9504938 54,30.7656141 C54,13.0382156 67.2669563,2.72137868e-12 84.0793922,2.72137868e-12 Z M84.6512438,12.3519938 C76.8740625,12.3519938 70.5836953,17.2699172 68.5250297,25.0470984 L68.5250297,25.0470984 L99.6337547,25.0470984 C98.0325703,17.6130281 93.0002766,12.3519938 84.6512438,12.3519938 Z" id="e" fill="#000000"></path>
                <path d="M134.703178,60.5018953 L134.703178,32.0218953 C134.703178,20.8136047 143.166581,13.2618953 155.861686,13.2618953 L155.861686,1.37189531 C146.140209,1.37189531 138.477398,6.29034375 134.703178,14.1818953 L134.703178,1.37189531 L120.75,1.37189531 L120.75,60.5018953 L134.703178,60.5018953 Z" id="r" fill="#000000"></path>
                <polygon id="v" fill="#000000" points="197.542795 60.5018953 222.589894 1.37244375 207.721753 1.37244375 190.909317 44.3756813 173.75377 1.37244375 159 1.37244375 184.390209 60.5018953"></polygon>
                <g id="o" transform="translate(221.250000, 0.033145)">
                    <path d="M13.1783906,38.5991252 L29.109375,50.183634 L29.109375,61.875 C16.7646573,61.1549744 6.36338199,53.1906766 2.08711216,42.167394 L13.1783906,38.5991252 Z" id="Path" fill="#1192E8"></path>
                    <path d="M48.6964688,38.5991252 L59.7878878,42.167394 C55.5116342,53.1906348 45.1104217,61.154914 32.7658964,61.8749918 L32.765625,50.183634 L48.6964688,38.5991252 Z" id="Path" fill="#1192E8"></path>
                    <path d="M11.3428898,7.00113559 L18.1828125,16.454878 L12.1324219,35.0917388 L0.969061353,38.6832775 C0.377009381,36.3740039 0.044392566,33.9606351 0.00414474109,31.4761332 L9.05941988e-14,30.9640854 C9.05941988e-14,21.3054241 4.41853563,12.679654 11.3428898,7.00113559 Z" id="Path" fill="#009D9A"></path>
                    <path d="M50.5321102,7.00113559 C57.4564644,12.679654 61.875,21.3054241 61.875,30.9640854 C61.875,33.6291968 61.5385851,36.2156668 60.9059386,38.6832775 L49.7424375,35.0917388 L43.6920469,16.454878 L50.5321102,7.00113559 Z" id="Path" fill="#009D9A"></path>
                    <path d="M30.9375,-4.4408921e-15 C37.060888,-4.4408921e-15 42.76877,1.78052128 47.5725001,4.8524979 L40.7084062,14.3396087 L21.1664531,14.3396087 L14.3024999,4.8524979 C18.9721898,1.86623975 24.4962778,0.100370573 30.4258919,0.00414830278 L30.9375,-4.4408921e-15 Z" id="Path" fill="#42BE65"></path>
                </g>
            </g>
        </g>
    </g>
</svg>